<svg xmlns="http://www.w3.org/2000/svg" viewBox="0 0 280.36 445.55"><defs><style>.a{font-size:409.89px;font-family:Potra, Potra;}.a,.c{fill:#f5f19c;}.b{fill:none;}</style></defs><title>SINGLELETTER</title><text class="a" transform="translate(0 348.4)">A</text><path class="b" d="M20.75,310.23q-8.21-2.46-6.15-9L115.44,30.27c1.36-3,3.54-4.51,6.55-4.51h5.74c3,0,5.19,1.51,6.56,4.51l48.78,148.79a7.17,7.17,0,0,1-.41,5.33,6.28,6.28,0,0,1-4.1,3.28,1.7,1.7,0,0,0-1,.2c-.14.15-.48.21-1,.21-3,0-5.19-1.64-6.56-4.92L124.45,44.62,27.31,306.13A6.87,6.87,0,0,1,20.75,310.23Zm38.53.82q-4.52-1.23-6.15-3.9a7.44,7.44,0,0,1-.82-5.94q2.05-5.32,7-5.33a2.78,2.78,0,0,1,1.23.21,2.8,2.8,0,0,0,1.23.2,7.65,7.65,0,0,1,4.1,3.9,7.76,7.76,0,0,1,.41,5.53v.41Q64.19,311.05,59.28,311.05Zm7.38-22.55q-8.2-2.46-6.15-9l57-168.06c1.64-3,3.82-4.51,6.55-4.51a2.78,2.78,0,0,1,1.23.21,1.77,1.77,0,0,0,.82.2,6.2,6.2,0,0,1,4.1,3.48,6.76,6.76,0,0,1,.41,5.13L73.22,284Q71.16,288.51,66.66,288.5Zm142.23-.41q-4.92,0-6.15-4.51L192.5,252.84H110.93a6.05,6.05,0,0,1-4.72-2.05,7.07,7.07,0,0,1-1.84-4.92q0-6.54,6.56-6.55h86.48c3,0,5.19,1.5,6.56,4.5l11.48,35.67a6.18,6.18,0,0,1-.41,4.91,6.25,6.25,0,0,1-4.1,3.28Zm43.86,22.14a6.86,6.86,0,0,1-6.56-4.1L213.4,216.77h-91a6.52,6.52,0,0,1-5.12-2.05,7.07,7.07,0,0,1-1.84-4.92c0-4.36,2.31-6.55,7-6.55h95.92a6.64,6.64,0,0,1,6.15,3.68l34.43,94.28q2,6.56-4.1,8.61ZM207.66,187.67c-3,0-5.19-1.5-6.56-4.51l-41-125.84q-2.06-6.54,4.1-8.6a4.62,4.62,0,0,1,2-.41,6.38,6.38,0,0,1,6.56,4.5l41.4,125.84a7.17,7.17,0,0,1-.41,5.33,6.25,6.25,0,0,1-4.1,3.28Z" transform="translate(-0.67 37.77)"/><path class="c" d="M180.59,133.89c-4.67-13.14-9.41-27.86-14.15-42.62l-7.1-22q-1.8-5.41-3.54-10.68a14.63,14.63,0,0,1-.73-4,10.58,10.58,0,0,1,.92-4.73,10,10,0,0,1,3-3.71,13.92,13.92,0,0,1,3.69-1.94l-.59.25a8.34,8.34,0,0,1,1.11-.47,10.07,10.07,0,0,1,3-.48,13.75,13.75,0,0,1,2.43.17A11,11,0,0,1,173.83,46a11.9,11.9,0,0,1,3.32,4.39c.41,1,.5,1.31.69,1.85l.54,1.53q2.13,6.12,4.3,12.33c2.86,8.28,5.7,16.65,8.52,25,5.64,16.77,11.17,33.58,16.48,49.72-.43.14-2-2.33-1.29.43,2.89,11,2,11.26,1.16,11.55-.43.14-2.65-8.07-2.2-5.24-2.65-8.06-7.29-21.44-5.06-13.22.45,2.83,4.42,13.44,4.66,16.34s-2.18-2.26-1.94.64c.88,2.69,2.65,8.07,3.54,10.76.45,2.82-2.18-2.26-1.3.42,1.11,4.11,2.61,8.82,4.26,13.86l.63,1.9.32,1,.15.45a1.87,1.87,0,0,1,.06.22,3.51,3.51,0,0,1,0,2,2.48,2.48,0,0,1-1,1.37,3.15,3.15,0,0,1-.41.23l-.25.1-.18.06-1.87.38c-.05-.22-.79-.31-.83-.5s.13-.22.64-.41c.25-.09.59-.2,1-.32l.7-.2c.06,0,0,0,.18-.1.54-.26.57-.31.8-.72a2.14,2.14,0,0,0,.13-1.51l0-.13,0-.09-.13-.39-.38-1.12-.75-2.26-1.51-4.51-6.05-18.07q-6.08-18.11-12.16-36.29L176.36,81l-6.09-18.24-1.53-4.56L168,55.93l-.38-1.14,0-.15,0,0,0-.07a1.3,1.3,0,0,0-.08-.17.71.71,0,0,0-.22-.32s0,0-.11,0a2.89,2.89,0,0,0-.69-.09h-.21l-.07-.57a6.22,6.22,0,0,0-.53-1.84L166,54a4.79,4.79,0,0,0-.73.33v0s0,0,0,0,0,0,.05.36a4.46,4.46,0,0,0,.13.56l.09.31.18.55.72,2.19,1.44,4.37q2.87,8.75,5.74,17.48,5.72,17.49,11.41,34.93T196.3,150q2.79,8.7,5.57,17.37,1.4,4.33,2.77,8.66l1.38,4.33.24.75c0,.05-.06-.13,0,0l.12.23a2.68,2.68,0,0,0,.4.55,1,1,0,0,0,.35.3c.16.1.39.15.52.22.33.07.43.14.34.22a1.22,1.22,0,0,1-.28.11c-.13,0-.16.08-.27.12a2.74,2.74,0,0,1-.67.16,1.54,1.54,0,0,1-.76-.11A2.69,2.69,0,0,1,205,182a1.33,1.33,0,0,1-.14-.19c-.06-.1-.05-.05-.08-.09a1,1,0,0,1-.08-.11s-.09-.21-.13-.3l-.62-1.47a10.5,10.5,0,0,1,.55,1.59c.11.45,0,.3.07.57a2.14,2.14,0,0,0,.85,1.38c-.11.12-.38.17-.82-.05a3,3,0,0,1-.76-.58c-.13-.12-.31-.36-.4-.44a1,1,0,0,1-.17-.24l-.23-.45a111.72,111.72,0,0,1-4.75-11.84c.88,2.69,1.75,5.38,2.63,8.07.66,2.76-.65.21-1.08.35-.88-2.69-1.75-5.38-2-5.31l-.86.28c.43,1.35,1.09,3.37,1.75,5.38l1,3c.15.46.29.9.43,1.31l.2.64.28.58-.26-.54c-.07-.19-.13-.4-.19-.56l-.31-1-.59-1.71c-.35-1-.63-1.66-.74-1.62l-.86.28c-2-5.32-4.17-13.53-6.14-18.84l-.64.21c1.53,5.45,4.38,13.45,6.13,18.84-1.09-2.63-1.31-2.56-1.74-2.42-2.84-8-4.82-16.28-8.1-24.14l2.63,8.07C187,155.62,183.44,141.89,180.59,133.89Z" transform="translate(-0.67 37.77)"/><path class="c" d="M215.13,233.8c-1-2.5-1.94-5.05-2.94-7.63l-1.48-3.9-.42-1-.73,0-2.93,0-6.87,0h-14l-28.36-.07-28.1,0-6.86,0a12.08,12.08,0,0,1-5.2-1,10.3,10.3,0,0,1-2.51-1.63,11.4,11.4,0,0,1-1.84-2.08,11.62,11.62,0,0,1-2-5.08,14.16,14.16,0,0,1-.1-2.48c0-.38.07-.81.11-1.21s.16-.92.26-1.37a9.93,9.93,0,0,1,3-5,10.26,10.26,0,0,1,2.44-1.62,12.27,12.27,0,0,1,2.68-.87,16.37,16.37,0,0,1,3.14-.33l2.24,0,4.52-.08,9.08-.14,18.37-.23,37.21-.26,18.65-.07h5.83a13.07,13.07,0,0,1,1.95.14,12,12,0,0,1,4.07,1.34,12.16,12.16,0,0,1,3.32,2.7c.23.26.43.52.63.78s.19.27.28.4l.33.49.58,1,.39,1c.54,1.45,1.07,2.9,1.6,4.35,4.23,11.58,8.43,23.05,12.54,34.29-.43.15-2.44-3.37-1.29.45,4.83,15.21,4,15.5,3.12,15.8-.43.15-4.1-11.22-3.17-7.33-4.1-11.23-11.15-29.87-7.47-18.48.94,3.89,6.83,18.7,7.55,22.67s-2.65-3.29-1.92.67c1.36,3.75,4.09,11.23,5.46,15,.93,3.88-2.65-3.29-1.29.45,1.84,5.68,4.17,12.24,6.73,19.25l2,5.33c.33.9.66,1.8,1,2.71l.5,1.37.13.35.06.21c0,.15.08.29.11.45a5.73,5.73,0,0,1,.14.87,2.45,2.45,0,0,1,0,.55,1.71,1.71,0,0,1-.43.92,2.65,2.65,0,0,1-1,.68,2.3,2.3,0,0,1-.69.21l-1.46.3c-.05-.23-1.07-.25-1.11-.45s.2-.23.92-.46c.35-.11.84-.25,1.47-.41a.66.66,0,0,0,.2-.07s0,0,.06,0a2.8,2.8,0,0,0,.3-.15l.14-.07.09-.07a.79.79,0,0,0,.44-.61.51.51,0,0,0,0-.22,1.22,1.22,0,0,0,0-.23c0-.1,0-.19-.05-.31s-.11-.45-.16-.64a4.74,4.74,0,0,0-.18-.51l-.22-.59q-1.74-4.72-3.49-9.46l-7-19q-7-19-14.06-38-3.51-9.52-7-19.06l-1.77-4.77-.83-2.23a.15.15,0,0,0,0-.08,2.18,2.18,0,0,0-.25-.3,1,1,0,0,0-.35-.24,1.81,1.81,0,0,0-.64-.1h-4.92l-40.82.15-40.86.14-9.9,0c-1.13.14-.71.11-.8.14s0-.31-.06.81a1.4,1.4,0,0,0,.36,1.07c.14.15.06.07.12.11a1.92,1.92,0,0,0,.5.09h9.74l85.62-.08q17.06,46.74,33.93,93c.38.58.38.52.61.68a4.1,4.1,0,0,0,.79.27c.47.07.61.14.48.21a1.49,1.49,0,0,1-.4.12c-.17,0-.25.08-.41.11a3,3,0,0,1-.94.06,1.7,1.7,0,0,1-1-.53,4.1,4.1,0,0,1-.33-.37l-.19-.23-.85-1.94c-.58-1.32-1.18-2.69-1.77-4.06a20.46,20.46,0,0,1,1.26,3.77c.12.49.24,1,.42,1.57l.16.47.17.46a1.94,1.94,0,0,0,.33.52c-.07.05-.19,0-.35,0a1.12,1.12,0,0,1-.52-.39c-.53-.86-1.25-2.19-2.12-4-1.75-3.6-4.12-9.1-7-16.54l4.11,11.22c1.16,3.82-.64.24-1.06.39-1.38-3.74-2.75-7.48-3-7.4l-.85.32,5.48,15c-1.37-3.74-2.74-7.48-2.95-7.4l-.85.32c-3-7.4-6.65-18.77-9.61-26.18l-.64.24c2.53,7.56,6.86,18.69,9.61,26.17-1.59-3.67-1.8-3.59-2.23-3.43-4.33-11.14-7.8-22.59-12.56-33.56L229.28,271C225.47,263.94,219.46,244.94,215.13,233.8Z" transform="translate(-0.67 37.77)"/><path class="c" d="M175.39,257.08c-13.14.38-27.73.32-42.35.26l-21.78,0h-.86c-.36,0-.72,0-1.08-.1a10.35,10.35,0,0,1-6.08-3,11.57,11.57,0,0,1-3.36-7.6,14.6,14.6,0,0,1,.28-3.87,10.72,10.72,0,0,1,1.88-4.15,9.43,9.43,0,0,1,3.53-2.79,12.29,12.29,0,0,1,4.1-1.07c.36,0,.7,0,1-.07l.81,0,1.49,0,3-.08,6-.14,12.24-.22c8.21-.13,16.5-.22,24.79-.27l24.78-.1,12.24,0h1.67a13.41,13.41,0,0,1,2.6.33,11.72,11.72,0,0,1,5,2.53,13.4,13.4,0,0,1,3.15,4c.11.19.15.28.29.56s.25.49.33.71l.33,1,.46,1.42c-.43.14-1.89-2.18-1.3.42,2.6,10.3,1.74,10.58.88,10.86-.44.14-2.44-7.57-2.06-4.91l-2.05-6.22a8.72,8.72,0,0,0-4.19-5.32,6.22,6.22,0,0,0-3.43-.7c-.14.05,0,.08.39.17a9,9,0,0,1,2.14.67A8.72,8.72,0,0,1,203,241.5a10,10,0,0,1,1.22,2c.31.81.51,1.56.77,2.37a49.72,49.72,0,0,1,2,7.7c.16,2.74-2.11-2.1-2,.63.82,2.53,2.44,7.58,3.25,10.11.38,2.66-2.1-2.11-1.29.42,1,3.86,2.37,8.3,3.9,13l.57,1.79.3.91c.1.32.11.35.15.5a2.43,2.43,0,0,1-.19,1.55,2.31,2.31,0,0,1-1,1.21,2.94,2.94,0,0,1-.8.34l-1.82.37c0-.22-.75-.31-.79-.51s.13-.22.6-.39c.23-.09.55-.2,1-.32l.71-.19c.13,0,.1-.05.17-.09a1.31,1.31,0,0,0,.73-.51,1,1,0,0,0,.12-.19c0-.09.1-.22.13-.31a1.26,1.26,0,0,0,.09-.44,1.4,1.4,0,0,0-.05-.37l-.5-1.53L209.16,276q-2.37-7.23-4.75-14.49T199.65,247l-.3-.9c-.14-.42-.12-.36-.13-.37l-.18-.32c-.08-.12-.15-.24-.22-.33a1.28,1.28,0,0,0-.66-.51,1.74,1.74,0,0,0-.51-.09H196.1l-3.82,0-61.43.35-15.39.07h-3.84a10.65,10.65,0,0,0-1.3.05c-.29,0-.21,0-.23,0l0,0s0,0,0,.08,0,.24,0,.36,0,.37,0,.47a1.41,1.41,0,0,0,.21.81l.12.16.14.15.08.05.14,0h5.11l15.37,0,65.41,0q5.82,17.73,11.6,35.35s0,.1.08.15.47.15.6.22c.31.06.41.13.32.21a.7.7,0,0,1-.26.12l-.3.11c-.2.08-.51.14-.64.19a.91.91,0,0,1-.59,0,1.23,1.23,0,0,1-.66-.43,18.62,18.62,0,0,1-1-2.23,11.09,11.09,0,0,1,.53,1.49,3.84,3.84,0,0,1,.1.77.92.92,0,0,0,.47.92c-.11.12-.35.19-.72.07a1.78,1.78,0,0,1-.58-.39,4.09,4.09,0,0,1-.74-1.19,100.87,100.87,0,0,1-4.59-11.09c.84,2.52,1.68,5,2.52,7.56.62,2.58-.65.2-1.09.33-.84-2.52-1.68-5-1.89-5l-.87.27c.84,2.53,2.53,7.6,3.38,10.13-.26-.71-.43-1.33-.65-1.91s-.39-1.14-.56-1.61c-.34-.93-.6-1.54-.71-1.51l-.87.27c-1.89-5-4-12.63-5.86-17.59l-.65.21c1.46,5.09,4.19,12.55,5.86,17.57-1.05-2.44-1.27-2.38-1.7-2.24-1.37-3.73-2.51-7.53-3.71-11.31-.6-1.89-1.22-3.77-1.88-5.64-.33-.94-.67-1.87-1-2.8l-.13-.33-.06-.12-.13-.23c-.08-.14-.16-.28-.25-.41l2,5.86a28.16,28.16,0,0,1-1.72-3.7c-.14-.38-.29-.76-.45-1.16l-.13-.28c-.08-.18-.16-.39-.23-.59h-.5l-.25,0h-.51l-4.49-.08C180.62,257.05,177.77,257,175.39,257.08Z" transform="translate(-0.67 37.77)"/><path class="c" d="M78,214.61c5.45-17.25,12-36.27,18.48-55.32,3.25-9.53,6.51-19.07,9.68-28.39l4.61-13.81,2.25-6.86c.09-.25.16-.5.26-.75l.39-.69c.28-.5.46-.76.69-1.12a14.48,14.48,0,0,1,1.61-2,11.44,11.44,0,0,1,4.9-3,11.62,11.62,0,0,1,3.34-.47,7.39,7.39,0,0,1,2.5.4l.54.22.08,0,0,0h0c-.57,1.12,1.27-2.5-1.27,2.51h0v0a.05.05,0,0,1,0,0c0,.06,0,.1,0,.12s0,0,0,0v-3.18l1.34.37a11.82,11.82,0,0,1,3.1,1.36,10.65,10.65,0,0,1,2.69,2.41,11.89,11.89,0,0,1,1.7,2.91,12.44,12.44,0,0,1,.86,3.19,11.06,11.06,0,0,1-.12,3.58c-.05.3-.13.59-.2.87l-.13.43-.09.28-.31,1-1.26,3.86-5.1,15.57c-3.47,10.41-7,20.92-10.46,31.42-7.13,21-14.24,41.9-21.08,62-.43-.15.11-3.83-1.29-.44-5.36,13.6-6.22,13.31-7.08,13-.43-.14,3.54-10.36,1.93-7.06,3.54-10.36,9.23-27.73,5.26-17.5-1.61,3.31-5.9,17.28-7.73,20.52s-.11-3.9-1.93-.66l-4.72,13.83c-1.61,3.3-.11-3.9-1.29-.44-2,5.11-4.11,11.14-6.32,17.62-1.1,3.24-2.23,6.59-3.38,10L70,281.78l-.22.64a1.11,1.11,0,0,1-.09.24,5,5,0,0,1-.84,1.27,2.78,2.78,0,0,1-2.23.87c0-.23-.92-.45-.92-.65s.23-.19.91-.28a2.76,2.76,0,0,0,1.08-.43,2.13,2.13,0,0,0,.61-.63,3.84,3.84,0,0,0,.36-.64l0,0,0-.11.24-.71,1.92-5.67q1.91-5.69,3.83-11.37,3.83-11.37,7.68-22.79,7.68-22.81,15.4-45.74t15.46-45.91l7.75-23,3.88-11.5.41-1.22a.42.42,0,0,0,0-.18,1.62,1.62,0,0,0-.15-.63c-.17-.4-.22-.41-.26-.45a1.2,1.2,0,0,0-.4-.18l1.55.22a7.34,7.34,0,0,1-3.09-.68l-.15-.07c.85-1.77-2.06,3.87,1.88-4,0,.07,0,.14-.09.22a5,5,0,0,0-.17.54,9.23,9.23,0,0,0-.27,1.42c-.07.53-.11,1.13-.14,1.77v.37h0a.34.34,0,0,0-.15,0,.71.71,0,0,0-.33.14,3.18,3.18,0,0,0-.7.78c-.06.08-.17.28-.19.29h0l-.11.33-.24.72-3.88,11.54q-3.89,11.54-7.76,23.06-7.8,23-15.56,46t-15.6,45.83q-3.92,11.43-7.82,22.82l-3.91,11.38-2,5.68a5.29,5.29,0,0,0-.16.74s0,.05,0,.09,0,0,0,.05a2.53,2.53,0,0,0,.28.25,6,6,0,0,0,.82.51c.59.32,1.11.53,1.38.69s.5.29.36.33a1.4,1.4,0,0,1-.38,0l-.56-.06a8.44,8.44,0,0,1-1.55-.34c-.26-.1-.55-.2-.78-.31s-.21-.12-.34-.18l-.22-.12a1.39,1.39,0,0,1-.61-.85,2.42,2.42,0,0,1,0-.92,11.52,11.52,0,0,1,.41-1.7c-.12.44-.24.83-.35,1.16s-.06.23-.1.34a1.83,1.83,0,0,1-.08.25,4.13,4.13,0,0,1-.14.42c0,.11-.06.2-.1.31a1.17,1.17,0,0,0,.28,1.34c-.13.09-.43.08-.79-.26a2.63,2.63,0,0,1-.6-2.38,8.73,8.73,0,0,1,.27-1.31l.39-1.58c.28-1.11.6-2.33,1-3.65.74-2.64,1.66-5.7,2.78-9.18l-3.52,10.38c-1.39,3.39-.65-.21-1.08-.35,1.18-3.47,2.35-6.92,2.13-7l-.86-.28c-.59,1.72-1.47,4.32-2.35,6.91L60,278.27l-.29.87c-.1.29-.18.61-.26.9a9.58,9.58,0,0,0-.22,1.68,10.37,10.37,0,0,1,.56-2.86c.27-.81.52-1.57.73-2.22a7.13,7.13,0,0,0,.55-2.22l-.87-.29c2.13-7,6.08-17.22,8.21-24.22l-.64-.21c-2.57,6.85-5.87,17.3-8.21,24.22.95-3.53.74-3.6.31-3.74,3.3-10.45,7.47-20.62,10.34-31.21l-3.52,10.38C68,242.07,74.72,225.06,78,214.61Z" transform="translate(-0.67 37.77)"/><path class="c" d="M48.3,306.71a9.87,9.87,0,0,1-.66-5.19,12.44,12.44,0,0,1,.28-1.47,4.08,4.08,0,0,1,.27-.76l.17-.38.12-.28a14.38,14.38,0,0,1,1.26-2.18A12.13,12.13,0,0,1,54,292.67a14.56,14.56,0,0,1,5.26-1.48,6.69,6.69,0,0,1,1.14,0,6.52,6.52,0,0,1,1.75.32l.31.12.2.09.05,0h0L61,295.16h0l0,0a1.56,1.56,0,0,0,.15-.34c0-.13.09-.28.13-.44l.07-.27,0-.14.49-2.58-.05,0H62l.28,0,.57,0a20,20,0,0,1,2.52,1c.41.21.82.45,1.21.7a12.47,12.47,0,0,1,1,.74,12.31,12.31,0,0,1,3.16,3.91,12.88,12.88,0,0,1,1.39,4.76,13.36,13.36,0,0,1-.47,4.86l.21-1.54v1.55l-.43,1a19,19,0,0,1-1,1.92c-.38-.24-.67-1.11-1.18-.68a3,3,0,0,1-2.17,1.08,2,2,0,0,1-1.19-.66c-.31-.28.95-1.21.28-1.08a6,6,0,0,0,1-2.33l.08-.41c-.09-.31-.22-.38-.38,0l-.06.26-.11.11c-.29.11-.52.61-.82,1.08s-.68.89-1.09.84-.59-.36-.8-.64a1.39,1.39,0,0,0-.79-.64,4.81,4.81,0,0,1-.85.84c-.47-.21-.65-1.22-.83-1.08a2.9,2.9,0,0,0-1,.2,4.09,4.09,0,0,1-1.31.24c0-.22-.11-.45-.11-.65a.36.36,0,0,1,.11-.27.49.49,0,0,1,.21-.22,1.7,1.7,0,0,0,1.17-.5,4.31,4.31,0,0,0,.85-1.55l-.4,2v-.61l.21-1.21a2.49,2.49,0,0,0-.35-1.92,2,2,0,0,0-.56-.59l-.17-.11h0l0,0h0a6.59,6.59,0,0,1-.88-.18,8.57,8.57,0,0,1-.87-.31l-.23-.1-.11-.05h0c-1.77,3.48,2.38-4.77,2-3.91v0a1.55,1.55,0,0,1-.08.23,6.72,6.72,0,0,0-.33,1.23c-.09.49-.15,1-.2,1.65l-.05.95v.24h0c-.09,0-.19,0-.26,0a.82.82,0,0,0-.43.18,2.74,2.74,0,0,0-.38.49,4.77,4.77,0,0,0-.32.61.84.84,0,0,0-.08.19l0-.07s0,0,0,0a1.75,1.75,0,0,0,.2,1.31,4.35,4.35,0,0,0,2.17,1.36c1.11.55,0,1.21-1.18,1.51.38-.1.16.55.56.43a2.13,2.13,0,0,1-2.74,1.08,9.77,9.77,0,0,0,1,.48c.27.35-.25.63-.43,1.05-.39-.16-.76-.34-.86-.13l-.4.81a15.21,15.21,0,0,0,1.68.69c-.43-.15-.85-.32-.93-.11l-.35.84c-1-.14-2.13-1.26-3.08-1.74l-.42.53a8.24,8.24,0,0,0,3.25,1.84c-.56,0-.66.21-.84.63a6.88,6.88,0,0,1-2.21-1.27A17.76,17.76,0,0,0,51,310.57a11.74,11.74,0,0,0,1.42,1.33c-.84.07-1.82-.72-2.57-1.87a10.22,10.22,0,0,1-.87-1.71C48.71,307.75,48.51,307.19,48.3,306.71Z" transform="translate(-0.67 37.77)"/><path class="c" d="M71.63,135.82c7.25-20,15-41.13,23.05-62.78,4-10.81,8.1-21.77,12.21-32.8L110,32l.77-2.07.42-1.11a8,8,0,0,1,.39-.87c.11-.23.24-.47.37-.7A12.85,12.85,0,0,1,114,24.46a10.76,10.76,0,0,1,3.1-2.18,11.32,11.32,0,0,1,3.56-1,8.48,8.48,0,0,1,.86-.06h6.3a11.65,11.65,0,0,1,3.51.53,10.8,10.8,0,0,1,3.37,1.78,11.58,11.58,0,0,1,2.45,2.62,15.71,15.71,0,0,1,.84,1.4l.42.85a2.29,2.29,0,0,1,.17.46l.14.41c14.7,45.07,29.43,90.23,43.15,131l4.65,13.79,1.2,3.59c.08.29.15.51.2.73s.1.46.14.7a11.81,11.81,0,0,1,.18,1.47,11.72,11.72,0,0,1-1.23,6,11.18,11.18,0,0,1-1.88,2.69,11,11,0,0,1-2.63,2,14.36,14.36,0,0,1-3.2,1.25h-.61c0,.52-.56-4.36-.32-2.41,0-.15,0-.3-.07-.44s-.1-.54-.15-.76a2.35,2.35,0,0,0-.39-.89c6.61,6.48,1.59,2,2.94,3.58l-.41.31-.37.24-.33.17a6.41,6.41,0,0,1-1,.37,7.45,7.45,0,0,1-1.78.26c-.39,0-.68,0-1,0a11.1,11.1,0,0,1-7.6-3.42,13.69,13.69,0,0,1-2.2-3.07,12.83,12.83,0,0,1-.79-1.71l-.44-1.3-.77-2.29-1.53-4.58q-3.08-9.16-6.16-18.39-6.15-18.47-12.37-37.1T131.57,83.78l-6.2-18.72-.77-2.34-.31-.95,0,0,0-.12-.09-.22c-13.71,37-27.35,73.75-40.52,109.28-.43-.16,1.93-8.46-1.28-.47-12.62,32-13.47,31.69-14.32,31.37-.42-.16,9-24.18,5.57-16.28,9-24.19,23.75-64.6,14.33-40.55-3.42,7.91-15,40.31-18.6,48.13s1.71-8.53-1.92-.72c-3,8.08-9,24.2-12,32.27-3.42,7.89,1.72-8.54-1.28-.48-4.7,12-10,26.1-15.61,41.22l-8.63,23.31-4.43,12-1.12,3c-.17.45-.42,1.16-.44,1.18l-.07.13-.12.19c-.08.14-.17.25-.25.37a2.76,2.76,0,0,1-1.09.88,3.84,3.84,0,0,1-1.62.3c0-.22-2.15-.45-2.16-.65s.53-.19,2.14-.27a3.07,3.07,0,0,0,1.22-.33,1.79,1.79,0,0,0,.47-.4,3.38,3.38,0,0,0,.3-.41c0-.08.14-.24.15-.26l0-.12Q73.47,167.25,124.76,28.49q14.64,44.34,29.29,88.76l12.27,37.18L172.46,173l1.54,4.65.76,2.33.39,1.16v0q.08.17.15.3a3.64,3.64,0,0,0,.5.77.65.65,0,0,0,.22.18,1.09,1.09,0,0,0,.34.06s.15,0,.15,0a20.75,20.75,0,0,0,.42,4.25,2.13,2.13,0,0,0,.37.87c-7.5-7.36-1.79-2.33-3.32-4.08.19-.16.32-.25.49-.37a6.54,6.54,0,0,1,1.85-.83c.28-.08.48-.12.68-.16l.39-.05h0l0,0a.56.56,0,0,0,.12-.09s.05-.06.11-.17a1.76,1.76,0,0,0,.12-.34,2.24,2.24,0,0,0,0-.38c0-.08,0-.18,0-.29l0-.17,0-.06-1.17-3.55-4.68-14.21-9.35-28.41q-9.34-28.41-18.68-56.82-4.68-14.19-9.34-28.39l-4.66-14.19-.58-1.78-.29-.87h0s.05.1,0,0a2.1,2.1,0,0,0-.57-.77c-.07,0-.1-.08-.49-.11h-3.44c-1.15,0-2.89,0-2.81,0-.27.06-.21,0-.34.15A2.27,2.27,0,0,0,121,32a2.46,2.46,0,0,0-.19.32l-.08.16v0L119.43,36l-5.2,14Q109,64,103.84,78q-41.7,111.68-83,222.29L19.8,303a.6.6,0,0,1-.06.19,2,2,0,0,1,0,.24l0,.18a.25.25,0,0,0,0,.21,5.23,5.23,0,0,0,1.23.8c.51.25,1,.43,1.32.57.95.35,1.21.51.92.5a5.86,5.86,0,0,1-.85-.13l-.58-.13a5.59,5.59,0,0,1-.65-.16,8.61,8.61,0,0,1-1.39-.52,2.69,2.69,0,0,0-.29-.16l-.25-.16a1.46,1.46,0,0,1-.27-.2,1.15,1.15,0,0,1-.32-.71,3.61,3.61,0,0,1,.08-.81v-.11s0-.14.07-.21l.16-.48.32-1,5.91-17.42c-2.78,8.13-3.43,7.91-6.22,16-.32-.11.75-4.29,3.38-12.48s6.8-20.39,12.69-36.55l-9,24.18c-3.21,8-.64-.22-1.07-.37L29,263.28a36.41,36.41,0,0,0,1.68-5.1l-.85-.3c-3,8.05-9,24.19-12,32.24,1.49-4,3-8.06,4.09-11.09a37,37,0,0,0,1.69-5.1l-.86-.3c5.79-16.2,15.22-40.23,21-56.44l-.65-.22c-6.21,16.06-15,40.31-21,56.44,2.79-8.15,2.57-8.22,2.14-8.37,8.79-24.26,18.44-48.22,26.79-72.63l-9,24.18C47,200.09,62.84,160.09,71.63,135.82Z" transform="translate(-0.67 37.77)"/></svg>