<svg xmlns="http://www.w3.org/2000/svg" viewBox="0 0 280.36 445.55"><defs><style>.a{font-size:409.89px;font-family:Potra, Potra;}.a,.c{fill:#f5f19c;}.b{fill:none;}</style></defs><title>logo_a</title><text class="a" transform="translate(0 348.4)">A</text><path class="b" d="M20.75,292.81q-8.21-2.46-6.15-9L115.44,12.85q2-4.5,6.55-4.5h5.74c3,0,5.19,1.5,6.56,4.5l48.78,148.8a7.15,7.15,0,0,1-.41,5.32,6.25,6.25,0,0,1-4.1,3.28,1.61,1.61,0,0,0-1,.21,1.61,1.61,0,0,1-1,.2c-3,0-5.19-1.64-6.56-4.92L124.45,27.2,27.31,288.71A6.86,6.86,0,0,1,20.75,292.81Zm38.53.82c-3-.82-5.06-2.11-6.15-3.89a7.47,7.47,0,0,1-.82-5.95c1.37-3.54,3.69-5.33,7-5.33a2.93,2.93,0,0,1,1.23.21,2.8,2.8,0,0,0,1.23.2,7.65,7.65,0,0,1,4.1,3.9,7.76,7.76,0,0,1,.41,5.53v.41Q64.19,293.63,59.28,293.63Zm7.38-22.54q-8.2-2.46-6.15-9L117.49,94c1.64-3,3.82-4.51,6.55-4.51a2.78,2.78,0,0,1,1.23.21,1.77,1.77,0,0,0,.82.2,6.19,6.19,0,0,1,4.1,3.49,6.74,6.74,0,0,1,.41,5.12L73.22,266.58Q71.16,271.09,66.66,271.09Zm142.23-.41q-4.92,0-6.15-4.51L192.5,235.43H110.93a6.05,6.05,0,0,1-4.72-2.05,7.11,7.11,0,0,1-1.84-4.92q0-6.56,6.56-6.56h86.48c3,0,5.19,1.5,6.56,4.51l11.48,35.66A6.21,6.21,0,0,1,215,267a6.28,6.28,0,0,1-4.1,3.28Zm43.86,22.13a6.85,6.85,0,0,1-6.56-4.1L213.4,199.36h-91a6.52,6.52,0,0,1-5.12-2.05,7.11,7.11,0,0,1-1.84-4.92c0-4.37,2.31-6.56,7-6.56h95.92a6.63,6.63,0,0,1,6.15,3.69l34.43,94.27q2,6.57-4.1,8.61ZM207.66,170.25c-3,0-5.19-1.5-6.56-4.51l-41-125.83q-2.06-6.55,4.1-8.61a4.62,4.62,0,0,1,2-.41,6.37,6.37,0,0,1,6.56,4.51l41.4,125.84a7.15,7.15,0,0,1-.41,5.32,6.25,6.25,0,0,1-4.1,3.28Z" transform="translate(-0.67 55.18)"/><path class="c" d="M180.59,116.47c-4.67-13.14-9.41-27.86-14.15-42.62-2.38-7.38-4.77-14.76-7.1-22-1.2-3.61-2.38-7.18-3.54-10.68a14.7,14.7,0,0,1-.73-4A10.58,10.58,0,0,1,156,32.5a9.86,9.86,0,0,1,3-3.7,13.63,13.63,0,0,1,3.69-1.94l-.59.24a8.21,8.21,0,0,1,1.11-.46,10.11,10.11,0,0,1,3-.49,13.75,13.75,0,0,1,2.43.17,10.93,10.93,0,0,1,5.14,2.24A11.74,11.74,0,0,1,177.15,33c.41,1,.5,1.3.69,1.84l.54,1.53,4.3,12.33c2.86,8.28,5.7,16.66,8.52,25,5.64,16.78,11.17,33.59,16.48,49.72-.43.15-2-2.33-1.29.44,2.89,11,2,11.25,1.16,11.54-.43.14-2.65-8.06-2.2-5.24-2.65-8.06-7.29-21.44-5.06-13.22.45,2.83,4.42,13.44,4.66,16.34s-2.18-2.25-1.94.65c.88,2.69,2.65,8.06,3.54,10.75.45,2.82-2.18-2.26-1.3.43,1.11,4.1,2.61,8.82,4.26,13.85l.63,1.91.32,1,.15.46c0,.05,0,.1.06.21a3.51,3.51,0,0,1,0,2,2.51,2.51,0,0,1-1,1.38c-.12.07-.26.15-.41.22l-.25.1-.18.06-1.87.38c-.05-.22-.79-.3-.83-.5s.13-.22.64-.4c.25-.1.59-.2,1-.33l.7-.19a1,1,0,0,1,.18-.1,1.27,1.27,0,0,0,.8-.73,2.12,2.12,0,0,0,.13-1.5l0-.13,0-.1-.13-.38-.38-1.13-.75-2.25-1.51-4.51q-3-9-6.05-18.08-6.08-18.1-12.16-36.29l-12.2-36.41-6.09-18.24-1.53-4.56L168,38.51l-.38-1.14,0-.14,0,0,0-.07s-.06-.11-.08-.17c-.11-.23-.19-.3-.22-.31s0,0-.11,0a2.89,2.89,0,0,0-.69-.09h-.21l-.07-.56a6.31,6.31,0,0,0-.53-1.85l.4,2.54a7.06,7.06,0,0,0-.73.32v0s0,0,0,0,0,0,.05.37a4.77,4.77,0,0,0,.13.55l.09.32.18.54.72,2.19,1.44,4.37q2.87,8.74,5.74,17.48Q179.32,80.3,185,97.74t11.29,34.83q2.79,8.7,5.57,17.37,1.4,4.34,2.77,8.67l1.38,4.33.24.74s-.06-.12,0,0l.12.23a2.68,2.68,0,0,0,.4.55,1.14,1.14,0,0,0,.35.31c.16.09.39.14.52.22.33.06.43.13.34.21a.84.84,0,0,1-.28.12c-.13,0-.16.07-.27.11a2.74,2.74,0,0,1-.67.16,1.52,1.52,0,0,1-.76-.1,2.83,2.83,0,0,1-1.05-.92,1.33,1.33,0,0,1-.14-.19c-.06-.09-.05,0-.08-.09l-.08-.1s-.09-.21-.13-.31l-.62-1.47a10.89,10.89,0,0,1,.55,1.59c.11.45,0,.31.07.58a2.12,2.12,0,0,0,.85,1.37c-.11.12-.38.17-.82,0a3.08,3.08,0,0,1-.76-.59c-.13-.12-.31-.36-.4-.44a1,1,0,0,1-.17-.23l-.23-.45a113,113,0,0,1-4.75-11.85c.88,2.69,1.75,5.38,2.63,8.08.66,2.76-.65.21-1.08.35-.88-2.7-1.75-5.38-2-5.31l-.86.28c.43,1.34,1.09,3.36,1.75,5.38.33,1,.66,2,1,2.94.15.46.29.9.43,1.31l.2.65.28.57-.26-.54c-.07-.18-.13-.4-.19-.56l-.31-1-.59-1.71c-.35-1-.63-1.66-.74-1.62l-.86.28c-2-5.31-4.17-13.52-6.14-18.84l-.64.21c1.53,5.46,4.38,13.46,6.13,18.84-1.09-2.62-1.31-2.55-1.74-2.41-2.84-8-4.82-16.29-8.1-24.15l2.63,8.07C187,138.2,183.44,124.47,180.59,116.47Z" transform="translate(-0.67 55.18)"/><path class="c" d="M215.13,216.39q-1.44-3.76-2.94-7.64l-1.48-3.9-.42-1-.73,0-2.93,0-6.87,0h-14l-28.36-.08h-28.1l-6.86,0a12.26,12.26,0,0,1-5.2-1.05,10.57,10.57,0,0,1-2.51-1.62,12.1,12.1,0,0,1-1.84-2.08,11.62,11.62,0,0,1-2-5.09,14.16,14.16,0,0,1-.1-2.48c0-.38.07-.81.11-1.21s.16-.92.26-1.37a10,10,0,0,1,3-5,10.22,10.22,0,0,1,2.44-1.61,12.32,12.32,0,0,1,2.68-.88,16.37,16.37,0,0,1,3.14-.33l2.24,0,4.52-.08,9.08-.14,18.37-.22,37.21-.27,18.65-.07h5.83a14.55,14.55,0,0,1,1.95.14,12,12,0,0,1,4.07,1.35,11.81,11.81,0,0,1,3.32,2.7,9.34,9.34,0,0,1,.63.78l.28.39.33.49.58,1,.39,1.05c.54,1.45,1.07,2.9,1.6,4.35,4.23,11.59,8.43,23.06,12.54,34.29-.43.15-2.44-3.37-1.29.46,4.83,15.2,4,15.5,3.12,15.8-.43.15-4.1-11.23-3.17-7.34-4.1-11.22-11.15-29.87-7.47-18.48.94,3.9,6.83,18.71,7.55,22.67s-2.65-3.29-1.92.68c1.36,3.74,4.09,11.22,5.46,15,.93,3.88-2.65-3.29-1.29.44,1.84,5.68,4.17,12.24,6.73,19.25l2,5.33c.33.9.66,1.81,1,2.72l.5,1.37.13.34.06.22c0,.14.08.28.11.44a5.93,5.93,0,0,1,.14.87,2.54,2.54,0,0,1,0,.56,1.65,1.65,0,0,1-.43.91,2.54,2.54,0,0,1-1,.68,2.32,2.32,0,0,1-.69.22l-1.46.29c-.05-.22-1.07-.25-1.11-.44s.2-.24.92-.47c.35-.11.84-.25,1.47-.41.22-.05.14,0,.2-.06s0,0,.06-.05l.3-.15.14-.08.09-.07a.79.79,0,0,0,.44-.6.57.57,0,0,0,0-.23,1.08,1.08,0,0,0,0-.22c0-.11,0-.19-.05-.32s-.11-.45-.16-.64-.12-.33-.18-.51l-.22-.59q-1.74-4.72-3.49-9.46l-7-19q-7-19-14.06-38l-7-19.06-1.77-4.77-.83-2.23a.15.15,0,0,0,0-.08,2.18,2.18,0,0,0-.25-.3,1.15,1.15,0,0,0-.35-.24,2.08,2.08,0,0,0-.64-.1l-4.92,0-40.82.15-40.86.13-9.9,0c-1.13.14-.71.12-.8.15s0-.32-.06.8a1.4,1.4,0,0,0,.36,1.07c.14.15.06.07.12.11a2.2,2.2,0,0,0,.5.1h9.74l85.62-.08q17.06,46.74,33.93,93c.38.57.38.51.61.68a4.92,4.92,0,0,0,.79.27c.47.06.61.13.48.21a2.19,2.19,0,0,1-.4.11c-.17,0-.25.08-.41.11a3,3,0,0,1-.94.07,1.78,1.78,0,0,1-1-.54,3.08,3.08,0,0,1-.33-.37,1.92,1.92,0,0,1-.19-.23l-.85-1.93c-.58-1.33-1.18-2.7-1.77-4.07a20.26,20.26,0,0,1,1.26,3.78c.12.48.24,1,.42,1.57l.16.46.17.46a2.11,2.11,0,0,0,.33.53c-.07,0-.19,0-.35-.06a1.12,1.12,0,0,1-.52-.39c-.53-.86-1.25-2.19-2.12-4-1.75-3.6-4.12-9.09-7-16.53L243.78,278c1.16,3.81-.64.23-1.06.39-1.38-3.75-2.75-7.48-3-7.4l-.85.31,5.48,14.95c-1.37-3.73-2.74-7.47-2.95-7.39l-.85.31c-3-7.4-6.65-18.77-9.61-26.18l-.64.24c2.53,7.56,6.86,18.69,9.61,26.17-1.59-3.66-1.8-3.58-2.23-3.43-4.33-11.13-7.8-22.58-12.56-33.56l4.12,11.21C225.47,246.53,219.46,227.53,215.13,216.39Z" transform="translate(-0.67 55.18)"/><path class="c" d="M175.39,239.67c-13.14.37-27.73.32-42.35.25l-21.78,0h-.86c-.36,0-.72-.05-1.08-.1a10,10,0,0,1-2.22-.54,10.5,10.5,0,0,1-3.86-2.49,11.57,11.57,0,0,1-3.36-7.6,14.63,14.63,0,0,1,.28-3.87,10.61,10.61,0,0,1,1.88-4.14,9.36,9.36,0,0,1,3.53-2.8,12.79,12.79,0,0,1,4.1-1.07l1-.06.81,0,1.49,0,3-.08,6-.14,12.24-.22c8.21-.13,16.5-.21,24.79-.27l24.78-.1h13c.28,0,.42,0,.91,0a12.65,12.65,0,0,1,2.6.32,11.94,11.94,0,0,1,5,2.53,13.52,13.52,0,0,1,3.15,4c.11.2.15.28.29.57a7.34,7.34,0,0,1,.33.71l.33,1,.46,1.42c-.43.14-1.89-2.17-1.3.42,2.6,10.3,1.74,10.58.88,10.86-.44.14-2.44-7.57-2.06-4.91L205.48,227a8.67,8.67,0,0,0-4.19-5.31,6,6,0,0,0-3.43-.7c-.14,0,0,.07.39.16a8.73,8.73,0,0,1,2.14.68,8.51,8.51,0,0,1,2.63,2.23,10,10,0,0,1,1.22,2c.31.81.51,1.57.77,2.37a50.31,50.31,0,0,1,2,7.7c.16,2.74-2.11-2.1-2,.63.82,2.53,2.44,7.58,3.25,10.11.38,2.66-2.1-2.11-1.29.42,1,3.86,2.37,8.3,3.9,13l.57,1.79.3.9c.1.32.11.35.15.51a2.81,2.81,0,0,1-1.19,2.76,3.3,3.3,0,0,1-.8.34l-1.82.37c0-.23-.75-.32-.79-.51s.13-.22.6-.4c.23-.09.55-.19,1-.31l.71-.2c.13,0,.1-.05.17-.09a1.36,1.36,0,0,0,.73-.5,1.76,1.76,0,0,0,.12-.2c0-.09.1-.22.13-.31a1.21,1.21,0,0,0,.09-.43,1.3,1.3,0,0,0-.05-.37l-.5-1.53-1.19-3.62q-2.37-7.23-4.75-14.48t-4.76-14.52l-.3-.91c-.14-.41-.12-.36-.13-.37L199,228a3.47,3.47,0,0,0-.22-.32,1.32,1.32,0,0,0-.66-.52,1.74,1.74,0,0,0-.51-.09H196.1l-3.82,0-61.43.34-15.39.07-3.84,0a9.44,9.44,0,0,0-1.3,0c-.29,0-.21,0-.23,0l0,0s0,0,0,.08,0,.24,0,.36,0,.38,0,.47a1.41,1.41,0,0,0,.21.81l.12.17.14.15c.07.05.07,0,.08,0s0,0,.14,0h5.11l15.37,0,65.41,0q5.82,17.73,11.6,35.35c0,.05,0,.1.08.16s.47.14.6.21c.31.07.41.14.32.21a.7.7,0,0,1-.26.12c-.12,0-.17.08-.3.12s-.51.13-.64.18a1,1,0,0,1-.59,0,1.25,1.25,0,0,1-.66-.44,18.62,18.62,0,0,1-1-2.23,11.6,11.6,0,0,1,.53,1.49,3.92,3.92,0,0,1,.1.77.92.92,0,0,0,.47.92.66.66,0,0,1-.72.07,1.78,1.78,0,0,1-.58-.39,3.94,3.94,0,0,1-.74-1.19A99.19,99.19,0,0,1,200.2,254l2.52,7.56c.62,2.59-.65.2-1.09.33-.84-2.52-1.68-5-1.89-5l-.87.28c.84,2.52,2.53,7.59,3.38,10.12-.26-.71-.43-1.33-.65-1.91s-.39-1.13-.56-1.6c-.34-.94-.6-1.55-.71-1.52l-.87.27c-1.89-5-4-12.63-5.86-17.59l-.65.21c1.46,5.09,4.19,12.55,5.86,17.58-1.05-2.45-1.27-2.38-1.7-2.25-1.37-3.73-2.51-7.52-3.71-11.3-.6-1.89-1.22-3.78-1.88-5.65-.33-.94-.67-1.87-1-2.79l-.13-.34-.06-.11-.13-.23a3.18,3.18,0,0,0-.25-.41l2,5.85a28.16,28.16,0,0,1-1.72-3.7c-.14-.37-.29-.76-.45-1.16l-.13-.28c-.08-.18-.16-.38-.23-.59h-1.26l-4.49-.08C180.62,239.63,177.77,239.6,175.39,239.67Z" transform="translate(-0.67 55.18)"/><path class="c" d="M78,197.19c5.45-17.25,12-36.26,18.48-55.32,3.25-9.53,6.51-19.07,9.68-28.39l4.61-13.81c.76-2.31,1.51-4.59,2.25-6.86.09-.25.16-.5.26-.74l.39-.69c.28-.5.46-.77.69-1.12a14.55,14.55,0,0,1,1.61-2,11.27,11.27,0,0,1,8.24-3.49,7.47,7.47,0,0,1,2.5.41c.17.06.29.1.54.21l.08,0,0,0h0c-.57,1.12,1.27-2.5-1.27,2.51h0v0s0,0,0,0l0,.12s0,0,0,0V85l1.34.38a11.46,11.46,0,0,1,3.1,1.35,10.65,10.65,0,0,1,2.69,2.41,12.08,12.08,0,0,1,1.7,2.91,12.41,12.41,0,0,1,.86,3.2,11.06,11.06,0,0,1-.12,3.58c-.05.29-.13.58-.2.87l-.13.43-.09.28-.31,1-1.26,3.87-5.1,15.56c-3.47,10.41-7,20.92-10.46,31.42-7.13,21-14.24,41.9-21.08,62-.43-.15.11-3.82-1.29-.44-5.36,13.61-6.22,13.31-7.08,13-.43-.15,3.54-10.37,1.93-7.06,3.54-10.37,9.23-27.74,5.26-17.5-1.61,3.31-5.9,17.28-7.73,20.51s-.11-3.89-1.93-.66L81.46,235.9c-1.61,3.31-.11-3.89-1.29-.44-2,5.11-4.11,11.14-6.32,17.62l-3.38,10L70,264.36l-.22.64a1.11,1.11,0,0,1-.09.24,5.07,5.07,0,0,1-.84,1.28,2.78,2.78,0,0,1-2.23.86c0-.22-.92-.45-.92-.65s.23-.19.91-.27a2.92,2.92,0,0,0,1.08-.43,2.35,2.35,0,0,0,.61-.64,3.73,3.73,0,0,0,.36-.63l0,0,0-.11.24-.71,1.92-5.67q1.91-5.69,3.83-11.37,3.83-11.37,7.68-22.78,7.68-22.82,15.4-45.75t15.46-45.9q3.87-11.49,7.75-23L124.91,98l.41-1.23a.4.4,0,0,0,0-.18,1.69,1.69,0,0,0-.15-.63c-.17-.39-.22-.41-.26-.45a1.34,1.34,0,0,0-.4-.17l1.55.22a7.5,7.5,0,0,1-3.09-.68l-.15-.08c.85-1.76-2.06,3.88,1.88-4,0,.07,0,.15-.09.23a4.15,4.15,0,0,0-.17.53A9.23,9.23,0,0,0,124.2,93c-.07.54-.11,1.13-.14,1.77v.37h-.19a.71.71,0,0,0-.33.14,3.52,3.52,0,0,0-.7.79c-.06.08-.17.27-.19.28h0l-.11.34-.24.72-3.88,11.53q-3.89,11.53-7.76,23.06-7.8,23-15.56,46t-15.6,45.84l-7.82,22.81q-2,5.7-3.91,11.38l-2,5.68a5.22,5.22,0,0,0-.16.75s0,.05,0,.08,0,0,0,.06a2.59,2.59,0,0,0,.28.24,7.2,7.2,0,0,0,.82.52c.59.31,1.11.52,1.38.68s.5.29.36.33a1.4,1.4,0,0,1-.38,0l-.56-.05A8.55,8.55,0,0,1,66,266a7.92,7.92,0,0,1-.78-.31c-.15-.05-.21-.12-.34-.17a1.24,1.24,0,0,0-.22-.12,1.41,1.41,0,0,1-.61-.86,2.36,2.36,0,0,1,0-.91,11.23,11.23,0,0,1,.41-1.7c-.12.44-.24.82-.35,1.16s-.06.23-.1.33a1.83,1.83,0,0,1-.08.25,4.13,4.13,0,0,1-.14.42,2.81,2.81,0,0,1-.1.31,1.17,1.17,0,0,0,.28,1.34c-.13.09-.43.08-.79-.26a2.62,2.62,0,0,1-.6-2.37,8.58,8.58,0,0,1,.27-1.32l.39-1.58c.28-1.11.6-2.32,1-3.64.74-2.65,1.66-5.71,2.78-9.18q-1.75,5.17-3.52,10.37c-1.39,3.39-.65-.21-1.08-.35,1.18-3.46,2.35-6.92,2.13-7l-.86-.28-2.35,6.92L60,260.85l-.29.87c-.1.29-.18.61-.26.9a9.7,9.7,0,0,0-.22,1.68,10.37,10.37,0,0,1,.56-2.86c.27-.81.52-1.57.73-2.22a7.07,7.07,0,0,0,.55-2.22l-.87-.28c2.13-7,6.08-17.23,8.21-24.22l-.64-.22c-2.57,6.86-5.87,17.31-8.21,24.23.95-3.54.74-3.61.31-3.75,3.3-10.45,7.47-20.62,10.34-31.2l-3.52,10.37C68,224.66,74.72,207.65,78,197.19Z" transform="translate(-0.67 55.18)"/><path class="c" d="M48.3,289.3a9.88,9.88,0,0,1-.66-5.19,12.2,12.2,0,0,1,.28-1.48,4.35,4.35,0,0,1,.27-.76l.17-.38.12-.27A14.46,14.46,0,0,1,49.74,279,12.13,12.13,0,0,1,54,275.25a14.56,14.56,0,0,1,5.26-1.48,6.69,6.69,0,0,1,1.14,0,6.23,6.23,0,0,1,1.75.33l.31.11.2.09.05,0h0c.38-.74-3.3,6.54-1.74,3.46h0l0,0a1.7,1.7,0,0,0,.15-.33c0-.14.09-.29.13-.45l.07-.26,0-.15.49-2.58-.05,0h.42l.57,0a18.54,18.54,0,0,1,2.52,1c.41.21.82.45,1.21.7a12.47,12.47,0,0,1,1,.74,12.31,12.31,0,0,1,3.16,3.91A12.88,12.88,0,0,1,72.11,285a13.33,13.33,0,0,1-.47,4.85l.21-1.54v1.56l-.43,1a19.11,19.11,0,0,1-1,1.93c-.38-.25-.67-1.11-1.18-.69a3,3,0,0,1-2.17,1.09,2.09,2.09,0,0,1-1.19-.67c-.31-.28.95-1.21.28-1.08a5.92,5.92,0,0,0,1-2.33l.08-.41c-.09-.3-.22-.38-.38,0l-.06.26a.56.56,0,0,0-.11.11c-.29.12-.52.62-.82,1.08s-.68.89-1.09.84-.59-.36-.8-.64a1.38,1.38,0,0,0-.79-.63,5.18,5.18,0,0,1-.85.84c-.47-.22-.65-1.22-.83-1.08a2.89,2.89,0,0,0-1,.19,4.06,4.06,0,0,1-1.31.25c0-.23-.11-.46-.11-.65a.38.38,0,0,1,.11-.28.55.55,0,0,1,.21-.22,1.62,1.62,0,0,0,1.17-.5,4.31,4.31,0,0,0,.85-1.55l-.4,2v-.61l.21-1.21A2.5,2.5,0,0,0,61,285a2,2,0,0,0-.56-.59l-.17-.1h0l0,0,0,0a8.85,8.85,0,0,1-.88-.19,5.46,5.46,0,0,1-.87-.31l-.23-.1-.11-.05h0c-1.77,3.48,2.38-4.77,2-3.91v0c0,.07-.05.15-.08.23a6.5,6.5,0,0,0-.33,1.23,16.37,16.37,0,0,0-.2,1.64l-.05.95v.25h0c-.09,0-.19,0-.26,0a.82.82,0,0,0-.43.18,2.6,2.6,0,0,0-.38.5,4.56,4.56,0,0,0-.32.6,1.08,1.08,0,0,0-.08.19l0-.07s0,0,0,0a1.74,1.74,0,0,0,.2,1.31,4.35,4.35,0,0,0,2.17,1.36c1.11.55,0,1.22-1.18,1.52.38-.11.16.54.56.43a2.13,2.13,0,0,1-2.74,1.07,8.11,8.11,0,0,0,1,.48c.27.36-.25.64-.43,1.05-.39-.15-.76-.33-.86-.13l-.4.82a17.36,17.36,0,0,0,1.68.68c-.43-.14-.85-.31-.93-.11l-.35.85c-1-.15-2.13-1.27-3.08-1.75l-.42.53a8.15,8.15,0,0,0,3.25,1.85c-.56,0-.66.21-.84.63a6.91,6.91,0,0,1-2.21-1.28A18.76,18.76,0,0,0,51,293.15a11.84,11.84,0,0,0,1.42,1.34c-.84.06-1.82-.72-2.57-1.87A10.7,10.7,0,0,1,49,290.9C48.71,290.33,48.51,289.77,48.3,289.3Z" transform="translate(-0.67 55.18)"/><path class="c" d="M71.63,118.4c7.25-20,15-41.13,23.05-62.77q6-16.23,12.21-32.81L110,14.53l.77-2.07.42-1.11a8,8,0,0,1,.39-.87c.11-.23.24-.47.37-.7A13.11,13.11,0,0,1,114,7a10.73,10.73,0,0,1,3.1-2.17,11.34,11.34,0,0,1,3.56-1l.86-.06h6.3a12,12,0,0,1,3.51.54,10.57,10.57,0,0,1,3.37,1.77,11.8,11.8,0,0,1,2.45,2.62c.31.47.59.93.84,1.4l.42.85a2.54,2.54,0,0,1,.17.46l.14.41c14.7,45.07,29.43,90.24,43.15,131q2.31,6.87,4.65,13.79l1.2,3.59c.08.3.15.51.2.74s.1.46.14.7a11.79,11.79,0,0,1-1.05,7.51,10.8,10.8,0,0,1-1.88,2.69,11,11,0,0,1-2.63,2,14.39,14.39,0,0,1-3.2,1.26h-.61c0,.52-.56-4.37-.32-2.42,0-.15,0-.29-.07-.44s-.1-.53-.15-.75a2.34,2.34,0,0,0-.39-.9c6.61,6.48,1.59,2,2.94,3.58a4.68,4.68,0,0,1-.41.32l-.37.23-.33.17a4.78,4.78,0,0,1-1,.37,7.45,7.45,0,0,1-1.78.26c-.39,0-.68,0-1,0a11.27,11.27,0,0,1-4.09-1,11,11,0,0,1-3.51-2.47,13.47,13.47,0,0,1-2.2-3.07,12.83,12.83,0,0,1-.79-1.71l-.44-1.3L164,163.8l-1.53-4.58q-3.08-9.16-6.16-18.4-6.15-18.47-12.37-37.1T131.57,66.36l-6.2-18.72-.77-2.34-.31-.95,0,0,0-.13-.09-.22c-13.71,37-27.35,73.75-40.52,109.28-.43-.16,1.93-8.46-1.28-.47-12.62,32-13.47,31.69-14.32,31.37-.42-.15,9-24.18,5.57-16.28,9-24.18,23.75-64.6,14.33-40.55-3.42,7.91-15,40.31-18.6,48.13s1.71-8.53-1.92-.71L55.41,207c-3.42,7.89,1.72-8.54-1.28-.48-4.7,12-10,26.11-15.61,41.22l-8.63,23.31-4.43,12-1.12,3c-.17.45-.42,1.16-.44,1.19l-.07.12-.12.2c-.08.13-.17.25-.25.36a2.88,2.88,0,0,1-1.09.89,4,4,0,0,1-1.62.3c0-.23-2.15-.46-2.16-.66s.53-.19,2.14-.27a2.92,2.92,0,0,0,1.22-.33,1.56,1.56,0,0,0,.47-.39,3.61,3.61,0,0,0,.3-.42,2.65,2.65,0,0,1,.15-.25.84.84,0,0,1,0-.12Q73.47,149.82,124.76,11.08q14.64,44.34,29.29,88.75L166.32,137l6.14,18.6,1.54,4.64.76,2.33.39,1.16v0a2.57,2.57,0,0,0,.15.29,3.38,3.38,0,0,0,.5.77.53.53,0,0,0,.22.18.84.84,0,0,0,.34.06s.15,0,.15,0a20.59,20.59,0,0,0,.42,4.25,2.06,2.06,0,0,0,.37.87c-7.5-7.35-1.79-2.32-3.32-4.08a4.32,4.32,0,0,1,.49-.36,5.78,5.78,0,0,1,.79-.45,5.54,5.54,0,0,1,1.06-.39,5.08,5.08,0,0,1,.68-.15l.39-.06h0a.33.33,0,0,0,.12-.1s.05-.06.11-.16a1.82,1.82,0,0,0,.12-.35,2.21,2.21,0,0,0,0-.38c0-.08,0-.18,0-.28l0-.17,0-.07-1.17-3.55-4.68-14.21-9.35-28.41q-9.34-28.41-18.68-56.81-4.68-14.2-9.34-28.4l-4.66-14.19-.58-1.77L129,15h0s.05.09,0,0a2.19,2.19,0,0,0-.57-.78,1,1,0,0,0-.49-.11h-3.44c-1.15,0-2.89,0-2.81,0-.27,0-.21,0-.34.14a2,2,0,0,0-.28.36,1.59,1.59,0,0,0-.19.32l-.08.15v0l-1.3,3.5-5.2,14q-5.19,14-10.39,27.94l-83,222.29-1.05,2.78a.7.7,0,0,1-.06.19,1.85,1.85,0,0,1,0,.23l0,.18c0,.07,0,.12,0,.21a5.23,5.23,0,0,0,1.23.81c.51.24,1,.42,1.32.57.95.35,1.21.5.92.49a5.86,5.86,0,0,1-.85-.13l-.58-.12a5.68,5.68,0,0,1-.65-.17,7.76,7.76,0,0,1-1.39-.52l-.29-.16-.25-.16a1.46,1.46,0,0,1-.27-.2,1.12,1.12,0,0,1-.32-.7,3.7,3.7,0,0,1,.08-.82v-.1a1.76,1.76,0,0,1,.07-.22l.16-.47.32-1,5.91-17.42c-2.78,8.12-3.43,7.9-6.22,16-.32-.11.75-4.29,3.38-12.47s6.8-20.4,12.69-36.55l-9,24.18c-3.21,8-.64-.22-1.07-.37l4.1-11.1a35.94,35.94,0,0,0,1.68-5.1l-.85-.3c-3,8.06-9,24.19-12,32.24,1.49-4,3-8.06,4.09-11.09a37,37,0,0,0,1.69-5.1l-.86-.29C28.55,240,38,216,43.77,199.78l-.65-.23c-6.21,16.06-15,40.32-21,56.44,2.79-8.14,2.57-8.22,2.14-8.37C33.05,223.37,42.7,199.4,51.05,175l-9,24.17C47,182.68,62.84,142.67,71.63,118.4Z" transform="translate(-0.67 55.18)"/></svg>